#!OML:ASF X:\für Bonn\!DataBase\2005_08_11_Bastian_Final\c3d\Bastian.ASF
:FULLY-SPECIFIED
:DEGREES
33
root 1.03708 17.0353 0.57016 151.41 -21.6618 -174.02
lowerback 25.4442 -5.18079 4.98695
upperback 14.405 -9.41484 2.28799
thorax 1.89061 -6.13927 1.7891
lowerneck -1.56495 -10.0405 -10.5154
upperneck -5.17136 -13.2864 15.0313
head 0.493846 -6.77819 5.89748
rclavicle 6.40087e-014 -7.15625e-015
rhumerus -53.5989 34.514 -109.402
rradius 34.9324
rwrist -38.9431
rhand -38.0783 1.85957
rfingers 7.12502
rthumb -11.1148 -27.8261
lclavicle 6.40087e-014 -7.15625e-015
lhumerus 39.8184 -30.5802 78.1692
lradius 97.7547
lwrist -17.3413
lhand -52.7364 -18.4674
lfingers 7.12502
lthumb -25.2132 9.88697
rfemur -36.078 2.27222 20.4352
rtibia 102.766
rfoot 16.4598 -3.16087
rtoes -16.9843
lfemur 14.8603 -4.74545 -17.4471
ltibia 31.3807
lfoot -11.5475 -7.69589
ltoes -2.06658
34
root 1.03523 17.0247 0.601431 150.59 -21.6398 -173.97
lowerback 26.997 -5.30356 4.79137
upperback 14.6917 -9.76884 2.27518
thorax 1.55096 -6.4428 2.14703
lowerneck -1.61232 -9.91332 -11.0008
upperneck -5.28291 -13.1103 15.5182
head 0.517925 -6.69603 6.12822
rclavicle 2.16675e-014 -1.19271e-014
rhumerus -54.4733 34.8133 -110.097
rradius 35.5922
rwrist -38.518
rhand -37.7308 2.23456
rfingers 7.12502
rthumb -10.7796 -27.4688
lclavicle 2.16675e-014 -1.19271e-014
lhumerus 41.2331 -30.1978 77.6583
lradius 99.0642
lwrist -18.1687
lhand -52.8146 -18.1015
lfingers 7.12502
lthumb -25.2881 10.2424
rfemur -38.3592 3.05566 20.8101
rtibia 105.606
rfoot 15.9077 -3.63457
rtoes -16.4731
lfemur 15.6079 -4.55464 -17.3773
ltibia 31.3383
lfoot -11.3604 -7.91865
ltoes -1.9139
35
root 1.03531 17.0145 0.625593 149.652 -21.7661 -173.863
lowerback 28.592 -5.44352 4.53332
upperback 14.9813 -10.1801 2.28792
thorax 1.2333 -6.78715 2.59679
lowerneck -1.65626 -9.78482 -11.4599
upperneck -5.38509 -12.9318 15.9592
head 0.537236 -6.61203 6.34317
rclavicle -1.78906e-015 4.41302e-014
rhumerus -55.3641 35.1539 -110.798
rradius 36.2422
rwrist -38.0986
rhand -37.4808 2.51402
rfingers 7.12502
rthumb -10.5384 -27.2018
lclavicle -1.78906e-015 4.41302e-014
lhumerus 42.5417 -29.8322 77.1981
lradius 100.328
lwrist -18.8497
lhand -52.854 -17.9298
lfingers 7.12502
lthumb -25.3259 10.4087
rfemur -40.5749 3.54208 21.145
rtibia 108.406
rfoot 15.3376 -4.07326
rtoes -15.8167
lfemur 16.4805 -4.36802 -17.234
ltibia 31.2408
lfoot -11.1497 -8.3056
ltoes -1.91477
36
root 1.03582 17.0019 0.646288 148.656 -21.995 -173.769
lowerback 30.2414 -5.56471 4.20479
upperback 15.2654 -10.5989 2.29036
thorax 0.91855 -7.14283 3.09617
lowerneck -1.7299 -9.66902 -11.7594
upperneck -5.45628 -12.7728 16.323
head 0.555356 -6.5379 6.50793
rclavicle -4.11484e-014 1.43125e-014
rhumerus -56.2474 35.443 -111.511
rradius 36.8997
rwrist -37.6434
rhand -37.3459 2.63706
rfingers 7.12502
rthumb -10.4083 -27.0853
lclavicle -4.11484e-014 1.43125e-014
lhumerus 43.7287 -29.5327 76.8173
lradius 101.538
lwrist -19.4552
lhand -52.8647 -17.9467
lfingers 7.12502
lthumb -25.3362 10.3904
rfemur -42.7615 3.80575 21.3935
rtibia 111.128
rfoot 14.7363 -4.35823
rtoes -15.5107
lfemur 17.4167 -4.18191 -17.0993
ltibia 31.1544
lfoot -10.9081 -8.81255
ltoes -1.61007
37
root 1.03638 16.9847 0.663501 147.6 -22.297 -173.618
lowerback 32.2785 -5.69744 3.94031
upperback 15.3522 -11.0292 2.4592
thorax 0.438053 -7.5075 3.55436
lowerneck -1.84443 -9.56407 -11.9302
upperneck -5.56628 -12.6233 16.5922
head 0.553747 -6.46948 6.62353
rclavicle -3.61788e-014 4.96962e-014
rhumerus -57.0443 35.711 -112.142
rradius 37.5076
rwrist -37.2362
rhand -37.2813 2.7768
rfingers 7.12502
rthumb -10.3461 -26.9487
lclavicle -3.61788e-014 4.96962e-014
lhumerus 44.9435 -29.2708 76.4225
lradius 102.686
lwrist -19.9737
lhand -52.8779 -18.0178
lfingers 7.12502
lthumb -25.3488 10.3174
rfemur -44.8641 3.82763 21.6121
rtibia 113.704
rfoot 14.0916 -4.41064
rtoes -15.4233
lfemur 18.3606 -3.9842 -16.8793
ltibia 31.1292
lfoot -10.693 -9.45234
ltoes -1.28246
38
root 1.0366 16.9625 0.677528 146.494 -22.6524 -173.432
lowerback 33.9878 -5.80121 3.65151
upperback 15.6034 -11.4681 2.5324
thorax 0.186966 -7.8859 4.07915
lowerneck -1.99095 -9.85914 -12.1097
upperneck -5.55639 -12.4542 16.9279
head 0.608041 -6.06174 6.7535
rclavicle -3.97569e-015 -1.86858e-014
rhumerus -57.8168 35.9871 -112.767
rradius 38.1366
rwrist -36.9453
rhand -37.2789 2.81673
rfingers 7.12502
rthumb -10.3437 -26.9089
lclavicle -3.97569e-015 -1.86858e-014
lhumerus 46.1229 -29.0467 76.0338
lradius 103.739
lwrist -20.5123
lhand -52.9771 -18.1573
lfingers 7.12502
lthumb -25.4438 10.1644
rfemur -46.9166 3.61071 21.7898
rtibia 116.146
rfoot 13.4271 -4.32198
rtoes -15.3539
lfemur 19.2908 -3.7501 -16.5836
ltibia 31.1886
lfoot -10.491 -10.2292
ltoes -1.03294
39
root 1.03571 16.9402 0.689552 145.359 -23.0257 -173.171
lowerback 35.6658 -5.91026 3.44552
upperback 15.8423 -11.9062 2.63128
thorax -0.0361088 -8.26405 4.58864
lowerneck -2.11476 -9.79193 -12.1828
upperneck -5.68116 -12.3251 17.1531
head 0.596876 -5.989 6.83998
rclavicle -8.07066e-014 7.63333e-014
rhumerus -58.5099 36.2036 -113.31
rradius 38.7094
rwrist -36.7023
rhand -37.2524 2.81325
rfingers 7.12502
rthumb -10.3182 -26.9136
lclavicle -8.07066e-014 7.63333e-014
lhumerus 47.2011 -28.8626 75.6982
lradius 104.779
lwrist -21.1315
lhand -53.1514 -18.2064
lfingers 7.12502
lthumb -25.6108 10.0914
rfemur -48.9761 3.11674 21.9609
rtibia 118.504
rfoot 12.7409 -4.14052
rtoes -14.7263
lfemur 19.9769 -3.54307 -16.2045
ltibia 31.7681
lfoot -10.5693 -11.1034
ltoes -0.613225
40
root 1.03337 16.9159 0.699418 144.25 -23.4163 -172.904
lowerback 37.2894 -6.01603 3.27401
upperback 16.0697 -12.3402 2.7321
thorax -0.224577 -8.63927 5.07832
lowerneck -2.29065 -9.7422 -12.2663
upperneck -5.7715 -12.2167 17.4117
head 0.610329 -5.92301 6.9335
rclavicle 4.90998e-014 -5.96354e-014
rhumerus -59.133 36.3942 -113.798
rradius 39.2737
rwrist -36.5943
rhand -37.2383 2.75542
rfingers 7.12502
rthumb -10.3045 -26.9721
lclavicle 4.90998e-014 -5.96354e-014
lhumerus 48.2331 -28.6699 75.4508
lradius 105.797
lwrist -21.7202
lhand -53.2489 -18.4237
lfingers 7.12502
lthumb -25.7041 9.86064
rfemur -51.1187 2.37877 22.0879
rtibia 120.736
rfoot 12.1871 -3.83102
rtoes -13.7395
lfemur 20.5905 -3.3524 -15.8308
ltibia 32.4181
lfoot -10.6902 -11.964
ltoes -0.36979
